<svg width="31" height="31" viewBox="0 0 31 31" fill="none" xmlns="http://www.w3.org/2000/svg">
<circle cx="15.5" cy="15.5" r="15.5" fill="white" fill-opacity="0.3"/>
<path d="M9.33601 20.212C8.92305 20.5787 8.88555 21.2107 9.25226 21.6237C9.61897 22.0367 10.251 22.0742 10.664 21.7075L9.33601 20.212ZM22.2144 11.0591C22.2471 10.5078 21.8267 10.0344 21.2754 10.0017L12.2912 9.46864C11.7399 9.43593 11.2664 9.85634 11.2337 10.4077C11.201 10.959 11.6214 11.4324 12.1727 11.4651L20.1587 11.9389L19.6849 19.9249C19.6522 20.4762 20.0726 20.9496 20.6239 20.9824C21.1752 21.0151 21.6487 20.5947 21.6814 20.0433L22.2144 11.0591ZM10.664 21.7075L21.8801 11.7477L20.5522 10.2522L9.33601 20.212L10.664 21.7075Z" fill="white"/>
</svg>
