<svg width="55" height="55" viewBox="0 0 55 55" fill="none" xmlns="http://www.w3.org/2000/svg">
<path d="M9.20562 40.8856C9.56243 41.2438 9.83583 41.6763 10.0064 42.1522C10.1769 42.6281 10.2403 43.1358 10.1922 43.6391C9.9506 45.9682 9.49258 48.2698 8.82406 50.5141C13.6194 49.4037 16.5481 48.1181 17.8784 47.4444C18.633 47.0622 19.5019 46.9716 20.3191 47.19C22.6615 47.8145 25.0758 48.1288 27.5 48.125C41.2363 48.125 51.5625 38.4759 51.5625 27.5C51.5625 16.5275 41.2363 6.875 27.5 6.875C13.7638 6.875 3.4375 16.5275 3.4375 27.5C3.4375 32.5462 5.55844 37.2281 9.20562 40.8856ZM7.51094 54.3091C6.69649 54.4705 5.87939 54.6184 5.06 54.7525C4.3725 54.8625 3.85 54.1475 4.12156 53.5081C4.42678 52.7883 4.70654 52.058 4.96031 51.3184L4.97062 51.2841C5.82312 48.8091 6.5175 45.9628 6.77187 43.3125C2.55406 39.0844 0 33.55 0 27.5C0 14.2106 12.3131 3.4375 27.5 3.4375C42.6869 3.4375 55 14.2106 55 27.5C55 40.7894 42.6869 51.5625 27.5 51.5625C24.7763 51.5662 22.0639 51.2125 19.4322 50.5106C17.6447 51.4147 13.7981 53.0612 7.51094 54.3091Z" fill="#12EEC7"/>
</svg>
