<svg width="55" height="55" viewBox="0 0 55 55" fill="none" xmlns="http://www.w3.org/2000/svg">
<path fill-rule="evenodd" clip-rule="evenodd" d="M27.5 52C41.031 52 52 41.031 52 27.5C52 13.969 41.031 3 27.5 3C13.969 3 3 13.969 3 27.5C3 41.031 13.969 52 27.5 52ZM27.5 55C42.6878 55 55 42.6878 55 27.5C55 12.3122 42.6878 0 27.5 0C12.3122 0 0 12.3122 0 27.5C0 42.6878 12.3122 55 27.5 55Z" fill="#12EEC7"/>
<path d="M26.4 41.6V13.4H28.86V41.6H26.4ZM27.33 38.3C25.69 38.3 24.12 38.07 22.62 37.61C21.12 37.13 19.93 36.52 19.05 35.78L20.4 32.75C21.24 33.41 22.28 33.96 23.52 34.4C24.76 34.84 26.03 35.06 27.33 35.06C28.43 35.06 29.32 34.94 30 34.7C30.68 34.46 31.18 34.14 31.5 33.74C31.82 33.32 31.98 32.85 31.98 32.33C31.98 31.69 31.75 31.18 31.29 30.8C30.83 30.4 30.23 30.09 29.49 29.87C28.77 29.63 27.96 29.41 27.06 29.21C26.18 29.01 25.29 28.78 24.39 28.52C23.51 28.24 22.7 27.89 21.96 27.47C21.24 27.03 20.65 26.45 20.19 25.73C19.73 25.01 19.5 24.09 19.5 22.97C19.5 21.83 19.8 20.79 20.4 19.85C21.02 18.89 21.95 18.13 23.19 17.57C24.45 16.99 26.04 16.7 27.96 16.7C29.22 16.7 30.47 16.86 31.71 17.18C32.95 17.5 34.03 17.96 34.95 18.56L33.72 21.59C32.78 21.03 31.81 20.62 30.81 20.36C29.81 20.08 28.85 19.94 27.93 19.94C26.85 19.94 25.97 20.07 25.29 20.33C24.63 20.59 24.14 20.93 23.82 21.35C23.52 21.77 23.37 22.25 23.37 22.79C23.37 23.43 23.59 23.95 24.03 24.35C24.49 24.73 25.08 25.03 25.8 25.25C26.54 25.47 27.36 25.69 28.26 25.91C29.16 26.11 30.05 26.34 30.93 26.6C31.83 26.86 32.64 27.2 33.36 27.62C34.1 28.04 34.69 28.61 35.13 29.33C35.59 30.05 35.82 30.96 35.82 32.06C35.82 33.18 35.51 34.22 34.89 35.18C34.29 36.12 33.36 36.88 32.1 37.46C30.84 38.02 29.25 38.3 27.33 38.3Z" fill="#12EEC7"/>
</svg>
