<svg width="55" height="45" viewBox="0 0 55 45" fill="none" xmlns="http://www.w3.org/2000/svg">
<path d="M8.01973 12.9508C8.02018 10.7179 8.58283 8.52301 9.65307 6.57916C10.7233 4.63532 12.2648 3.00852 14.1279 1.85663C15.9911 0.70475 18.1126 0.0668999 20.2866 0.0049821C22.4607 -0.0569357 24.6134 0.459182 26.5359 1.50325C28.4583 2.54732 30.0853 4.08388 31.2588 5.96382C32.4324 7.84376 33.1127 10.0032 33.2337 12.2327C33.3547 14.4621 32.9124 16.6859 31.9496 18.688C30.9867 20.6902 29.5362 22.4029 27.7386 23.6598C31.6097 25.1175 34.9673 27.7312 37.3793 31.1646C39.7913 34.598 41.1474 38.6939 41.273 42.9252C41.2676 43.3814 41.0908 43.8179 40.7794 44.1433C40.468 44.4688 40.0462 44.6582 39.602 44.6719C39.1578 44.6856 38.7256 44.5225 38.3958 44.2168C38.066 43.911 37.864 43.4862 37.832 43.0312C37.6954 38.442 35.8237 34.0878 32.6137 30.8912C29.4036 27.6946 25.1073 25.9069 20.6354 25.9069C16.1634 25.9069 11.8671 27.6946 8.65705 30.8912C5.44696 34.0878 3.5753 38.442 3.43869 43.0312C3.41573 43.4924 3.21773 43.9261 2.88713 44.2392C2.55653 44.5524 2.11962 44.7202 1.66999 44.7066C1.22036 44.6931 0.793787 44.4993 0.481646 44.1667C0.169505 43.8342 -0.0033719 43.3894 4.98427e-05 42.9276C0.125188 38.6959 1.48105 34.5994 3.89309 31.1656C6.30514 27.7318 9.66299 25.1177 13.5344 23.6598C11.8342 22.4719 10.4428 20.8751 9.4816 19.0085C8.52039 17.1419 8.01851 15.0622 8.01973 12.9508ZM20.6365 3.53007C18.2029 3.53007 15.869 4.52261 14.1482 6.28934C12.4274 8.05607 11.4607 10.4523 11.4607 12.9508C11.4607 15.4493 12.4274 17.8455 14.1482 19.6123C15.869 21.379 18.2029 22.3715 20.6365 22.3715C23.0701 22.3715 25.404 21.379 27.1248 19.6123C28.8456 17.8455 29.8123 15.4493 29.8123 12.9508C29.8123 10.4523 28.8456 8.05607 27.1248 6.28934C25.404 4.52261 23.0701 3.53007 20.6365 3.53007ZM39.6534 12.9508C39.3139 12.9508 38.9836 12.9744 38.6578 13.0215C38.4304 13.0633 38.1971 13.0576 37.9719 13.0048C37.7466 12.9521 37.534 12.8533 37.3468 12.7143C37.1595 12.5754 37.0014 12.3991 36.882 12.1961C36.7625 11.993 36.6841 11.7674 36.6514 11.5325C36.6187 11.2977 36.6325 11.0585 36.6918 10.8293C36.7511 10.6 36.8548 10.3854 36.9966 10.1981C37.1385 10.0109 37.3157 9.85493 37.5175 9.73951C37.7194 9.6241 37.9418 9.55161 38.1715 9.52637C40.453 9.1877 42.7795 9.63753 44.7847 10.8051C46.7899 11.9726 48.3601 13.7915 49.2481 15.9756C50.1362 18.1597 50.2916 20.585 49.69 22.8697C49.0885 25.1545 47.764 27.169 45.9251 28.5963C48.6283 29.839 50.9234 31.8582 52.5337 34.4104C54.144 36.9625 55.0005 39.9385 55 42.9794C55 43.4478 54.8187 43.8971 54.4961 44.2284C54.1734 44.5597 53.7358 44.7458 53.2795 44.7458C52.8232 44.7458 52.3856 44.5597 52.063 44.2284C51.7403 43.8971 51.5591 43.4478 51.5591 42.9794C51.5588 40.3513 50.734 37.7933 49.2069 35.6842C47.6798 33.575 45.5317 32.027 43.0806 31.2694L41.8556 30.8926V26.9453L42.7961 26.4531C44.1903 25.728 45.3058 24.5417 45.9625 23.0857C46.6192 21.6297 46.7789 19.989 46.4156 18.4284C46.0524 16.8678 45.1875 15.4784 43.9605 14.4846C42.7336 13.4907 41.2162 12.9504 39.6534 12.9508Z" fill="#12EEC7"/>
</svg>
